<svg xmlns="http://www.w3.org/2000/svg" viewBox="0 0 16 16" fill="currentColor">
            <path xmlns="http://www.w3.org/2000/svg" fill-rule="nonzero" d="M10 2.5C9.86739 2.5 9.74021 2.55268 9.64645 2.64645C9.55268 2.74021 9.5 2.86739 9.5 3C9.5 3.13261 9.55268 3.25979 9.64645 3.35355C9.74021 3.44732 9.86739 3.5 10 3.5H11.793L9.14648 6.14648C9.05274 6.24025 9.00008 6.36741 9.00008 6.5C9.00008 6.63259 9.05274 6.75975 9.14648 6.85352C9.24025 6.94726 9.36741 6.99992 9.5 6.99992C9.63259 6.99992 9.75975 6.94726 9.85352 6.85352L12.5 4.20703V6C12.5 6.13261 12.5527 6.25979 12.6464 6.35355C12.7402 6.44732 12.8674 6.5 13 6.5C13.1326 6.5 13.2598 6.44732 13.3536 6.35355C13.4473 6.25979 13.5 6.13261 13.5 6V3C13.498 2.99504 13.496 2.99012 13.4939 2.98523C13.4917 2.85861 13.4415 2.73755 13.3535 2.64648C13.2598 2.55272 13.1326 2.50003 13 2.5H10Z M6.5 9C6.3674 9.00002 6.24024 9.05271 6.14648 9.14648L3.5 11.793V10C3.5 9.86739 3.44732 9.74021 3.35355 9.64645C3.25979 9.55268 3.13261 9.5 3 9.5C2.86739 9.5 2.74021 9.55268 2.64645 9.64645C2.55268 9.74021 2.5 9.86739 2.5 10V13C2.50002 13.1326 2.55271 13.2598 2.64648 13.3535C2.74024 13.4473 2.8674 13.5 3 13.5H6C6.13261 13.5 6.25979 13.4473 6.35355 13.3536C6.44732 13.2598 6.5 13.1326 6.5 13C6.5 12.8674 6.44732 12.7402 6.35355 12.6464C6.25979 12.5527 6.13261 12.5 6 12.5H4.20703L6.85352 9.85352C6.94726 9.75975 6.99992 9.63259 6.99992 9.5C6.99992 9.36741 6.94726 9.24025 6.85352 9.14648C6.75976 9.05271 6.6326 9.00002 6.5 9Z"/>
        </svg>