<svg xmlns="http://www.w3.org/2000/svg" viewBox="0 0 16 16" fill="#b0b0b0ff">
            <path xmlns="http://www.w3.org/2000/svg" fill-rule="nonzero" d="M5 2.5C4.8674 2.50002 4.74024 2.55271 4.64648 2.64648L2.64648 4.64648C2.55271 4.74024 2.50002 4.8674 2.5 5C2.50002 5.1326 2.55271 5.25976 2.64648 5.35352L4.64648 7.35352C4.74025 7.44726 4.86741 7.49992 5 7.49992C5.13259 7.49992 5.25975 7.44726 5.35352 7.35352C5.44726 7.25975 5.49992 7.13259 5.49992 7C5.49992 6.86741 5.44726 6.74025 5.35352 6.64648L4.20703 5.5H13C13.1326 5.5 13.2598 5.44732 13.3536 5.35355C13.4473 5.25979 13.5 5.13261 13.5 5C13.5 4.86739 13.4473 4.74021 13.3536 4.64645C13.2598 4.55268 13.1326 4.5 13 4.5H4.20703L5.35352 3.35352C5.44726 3.25975 5.49992 3.13259 5.49992 3C5.49992 2.86741 5.44726 2.74025 5.35352 2.64648C5.25976 2.55271 5.1326 2.50002 5 2.5ZM11 8.5C10.8674 8.50002 10.7402 8.55271 10.6465 8.64648C10.5527 8.74025 10.5001 8.86741 10.5001 9C10.5001 9.13259 10.5527 9.25975 10.6465 9.35352L11.793 10.5H3C2.86739 10.5 2.74021 10.5527 2.64645 10.6464C2.55268 10.7402 2.5 10.8674 2.5 11C2.5 11.1326 2.55268 11.2598 2.64645 11.3536C2.74021 11.4473 2.86739 11.5 3 11.5H11.793L10.6465 12.6465C10.5527 12.7402 10.5001 12.8674 10.5001 13C10.5001 13.1326 10.5527 13.2598 10.6465 13.3535C10.7402 13.4473 10.8674 13.4999 11 13.4999C11.1326 13.4999 11.2598 13.4473 11.3535 13.3535L13.3535 11.3535C13.4414 11.2625 13.4915 11.1415 13.4938 11.015C13.4959 11.01 13.498 11.005 13.5 11C13.4985 10.9868 13.4964 10.9736 13.4938 10.9606C13.4917 10.9351 13.4877 10.9099 13.4818 10.885C13.4757 10.8593 13.4675 10.8342 13.4574 10.8098C13.4476 10.7862 13.436 10.7634 13.4227 10.7416C13.4089 10.7191 13.3934 10.6978 13.3762 10.6777C13.3691 10.667 13.3615 10.6566 13.3535 10.6465L11.3535 8.64648C11.2598 8.55271 11.1326 8.50002 11 8.5Z"/>
        </svg>