<svg xmlns="http://www.w3.org/2000/svg" viewBox="0 0 16 16" fill="currentColor">
            <path xmlns="http://www.w3.org/2000/svg" fill-rule="nonzero" d="M5.5 6.5C5.36739 6.5 5.24021 6.55268 5.14645 6.64645C5.05268 6.74021 5 6.86739 5 7C4.99999 7.79543 5.31621 8.55876 5.87866 9.12122C7.04599 10.2888 8.95401 10.2888 10.1213 9.12122C10.6838 8.55877 11 7.79544 11 7C11 6.86739 10.9473 6.74021 10.8536 6.64645C10.7598 6.55268 10.6326 6.5 10.5 6.5C10.3674 6.5 10.2402 6.55268 10.1464 6.64645C10.0527 6.74021 10 6.86739 10 7C10 7.53061 9.7894 8.039 9.41418 8.41418C8.62902 9.1995 7.37098 9.1995 6.58582 8.41418C6.2106 8.03899 6 7.53062 6 7C6 6.86739 5.94732 6.74021 5.85355 6.64645C5.75979 6.55268 5.63261 6.5 5.5 6.5Z M2.5 2.5C1.95364 2.5 1.5 2.95364 1.5 3.5V12.5C1.5 13.0464 1.95364 13.5 2.5 13.5H13.5C14.0464 13.5 14.5 13.0464 14.5 12.5V3.5C14.5 2.95364 14.0464 2.5 13.5 2.5H2.5ZM2.5 3.5H13.5V4.5H2.5V3.5ZM2.5 5.5H13.5V12.5H2.5V5.5Z"/>
        </svg>