<svg xmlns="http://www.w3.org/2000/svg" viewBox="0 0 16 16" fill="currentColor">
            <path xmlns="http://www.w3.org/2000/svg" fill-rule="nonzero" d="M2 3C1.45364 3 1 3.45364 1 4V12C1 12.5464 1.45364 13 2 13H6C6.398 13 6.77926 13.1579 7.06067 13.4393C7.34212 13.7207 7.50001 14.102 7.5 14.5C7.50186 14.6314 7.55535 14.7568 7.64892 14.849C7.74249 14.9413 7.8686 14.993 8 14.993C8.1314 14.993 8.25751 14.9413 8.35108 14.849C8.44465 14.7568 8.49814 14.6314 8.5 14.5V5.5C8.50013 4.12514 7.37486 2.99987 6 3H2ZM2 4H6C6.83436 3.99992 7.50008 4.66564 7.5 5.5V12.5127C7.06877 12.1874 6.54629 12 6 12H2V4Z M10 3C8.62514 2.99987 7.49987 4.12514 7.5 5.5C7.5 5.63261 7.55268 5.75979 7.64645 5.85355C7.74021 5.94732 7.86739 6 8 6C8.13261 6 8.25979 5.94732 8.35355 5.85355C8.44732 5.75979 8.5 5.63261 8.5 5.5C8.49994 4.66564 9.16564 3.99992 10 4H14V12H10C9.33719 12 8.70097 12.2635 8.2323 12.7322C7.76355 13.2009 7.49998 13.8371 7.5 14.5C7.5 14.6326 7.55268 14.7598 7.64645 14.8536C7.74021 14.9473 7.86739 15 8 15C8.13261 15 8.25979 14.9473 8.35355 14.8536C8.44732 14.7598 8.5 14.6326 8.5 14.5C8.49999 14.102 8.65788 13.7207 8.93933 13.4393C9.22074 13.1579 9.602 13 10 13H14C14.5464 13 15 12.5464 15 12V4C15 3.45364 14.5464 3 14 3H10Z"/>
        </svg>