<?xml version="1.0" encoding="UTF-8"?>
<svg id="Layer_1" data-name="Layer 1" xmlns="http://www.w3.org/2000/svg" viewBox="0 0 512 512">
  <defs>
    <style>
      .cls-1 {
        fill: #ffbf00;
      }

      .cls-1, .cls-2, .cls-3, .cls-4 {
        stroke-width: 0px;
      }

      .cls-2 {
        fill: #ed3049;
      }

      .cls-3 {
        fill: #b22437;
      }

      .cls-4 {
        fill: #26b5f8;
      }
    </style>
  </defs>
  <path class="cls-1" d="m233.91,87.46l-154.15,63.76c-8.61,3.51-8.49,15.74.11,19.14l154.82,61.39c13.59,5.44,28.77,5.44,42.36,0l154.82-61.39c8.61-3.4,8.72-15.63.11-19.14l-154.15-63.76c-14.16-5.89-29.9-5.89-43.94,0"/>
  <path class="cls-4" d="m269.59,265.28v153.35c0,7.25,7.36,12.23,14.16,9.63l172.49-66.94c3.96-1.59,6.57-5.32,6.57-9.63v-153.35c0-7.25-7.36-12.23-14.16-9.63l-172.49,66.94c-3.96,1.59-6.57,5.32-6.57,9.63"/>
  <path class="cls-2" d="m229.27,273.2l-51.19,24.69-5.21,2.49-108.05,51.76c-6.8,3.28-15.63-1.7-15.63-9.29v-143.95c0-2.72,1.36-5.1,3.28-6.91.79-.79,1.7-1.47,2.6-1.93,2.6-1.59,6.23-1.93,9.4-.68l163.89,64.9c8.38,3.28,9.06,14.95.91,18.91"/>
  <path class="cls-3" d="m60.74,188.6c-2.04,0-3.96.57-5.44,1.47-.91.57-1.81,1.13-2.6,1.93l125.38,105.9,51.19-24.69c3.85-1.93,5.78-5.55,5.78-9.17,0-3.96-2.27-8.04-6.57-9.74l-163.89-64.9c-1.25-.57-2.6-.79-3.85-.79"/>
</svg>