<svg xmlns="http://www.w3.org/2000/svg" viewBox="0 0 16 16" fill="currentColor">
            <path xmlns="http://www.w3.org/2000/svg" fill-rule="nonzero" d="M8 2C7.8674 2.00002 7.74024 2.05271 7.64648 2.14648L5.02148 4.77148C4.92774 4.86525 4.87508 4.99241 4.87508 5.125C4.87508 5.25759 4.92774 5.38475 5.02148 5.47852C5.11525 5.57226 5.24241 5.62492 5.375 5.62492C5.50759 5.62492 5.63475 5.57226 5.72852 5.47852L7.5 3.70703V9.5C7.5 9.63261 7.55268 9.75979 7.64645 9.85355C7.74021 9.94732 7.86739 10 8 10C8.13261 10 8.25979 9.94732 8.35355 9.85355C8.44732 9.75979 8.5 9.63261 8.5 9.5V3.70703L10.2715 5.47852C10.3652 5.57226 10.4924 5.62492 10.625 5.62492C10.7576 5.62492 10.8848 5.57226 10.9785 5.47852C11.0723 5.38475 11.1249 5.25759 11.1249 5.125C11.1249 4.99241 11.0723 4.86525 10.9785 4.77148L8.35352 2.14648C8.34867 2.14437 8.34378 2.14234 8.33887 2.14038C8.24777 2.05235 8.12666 2.00218 8 2Z M2.5 9C2.36739 9 2.24021 9.05268 2.14645 9.14645C2.05268 9.24021 2 9.36739 2 9.5V13C2.00007 13.5463 2.45357 13.9999 2.99988 14C2.99984 14 2.99992 14 2.99988 14H13C13.5464 14 14 13.5464 14 13V9.5C14 9.36739 13.9473 9.24021 13.8536 9.14645C13.7598 9.05268 13.6326 9 13.5 9C13.3674 9 13.2402 9.05268 13.1464 9.14645C13.0527 9.24021 13 9.36739 13 9.5V13H3.00012L3 9.5C3 9.36739 2.94732 9.24021 2.85355 9.14645C2.75978 9.05268 2.63261 9 2.5 9Z"/>
        </svg>